<?xml version="1.0" encoding="UTF-8"?>
<svg width="19px" height="21px" viewBox="0 0 19 21" version="1.1" xmlns="http://www.w3.org/2000/svg" xmlns:xlink="http://www.w3.org/1999/xlink">
    <title>846AD1FC-4065-4B70-8798-D9FBBD9229B2</title>
    <g id="Page-1" stroke="none" stroke-width="1" fill="none" fill-rule="evenodd">
        <g id="Fly-out---Add-items-(default)" transform="translate(-1059.000000, -184.000000)" fill="#000000">
            <g id="Search" transform="translate(1059.000000, 184.000000)">
                <path d="M18.8037402,19.6829533 L14.2992458,14.9780904 C17.4554578,11.6430494 17.5516324,6.28950453 14.5174494,2.83181796 C11.4832664,-0.625868609 6.39458133,-0.96167606 2.97209844,2.06992862 C-0.450384455,5.1015333 -0.993126873,10.4256087 1.74070926,14.1493399 C4.47454539,17.873071 9.51560097,18.6761035 13.1779972,15.9712823 L17.7702415,20.7938949 C18.0583631,21.0758374 18.50735,21.0675181 18.7858214,20.7750773 C19.0642929,20.4826364 19.0722147,20.0111262 18.8037402,19.7085511 L18.8037402,19.6829533 Z M1.59013659,8.83463489 C1.59013659,4.87620866 4.64578937,1.66727018 8.4151281,1.66727018 C12.1844668,1.66727018 15.2401196,4.87620866 15.2401196,8.83463489 C15.2401196,12.7930611 12.1844668,16.0019996 8.4151281,16.0019996 C4.64578937,16.0019996 1.59013659,12.7930611 1.59013659,8.83463489 Z" id="Shape"></path>
            </g>
        </g>
    </g>
</svg>