<?xml version="1.0" encoding="UTF-8"?>
<svg width="25px" height="24px" viewBox="0 0 25 24" version="1.1" xmlns="http://www.w3.org/2000/svg" xmlns:xlink="http://www.w3.org/1999/xlink">
    <title>36205CFB-B9AF-436A-9884-B751FEACAE39</title>
    <g id="Page-1" stroke="none" stroke-width="1" fill="none" fill-rule="evenodd">
        <g id="Default---Inspire-Me-(5-products)" transform="translate(-1249.000000, -322.000000)" fill="#000000">
            <g id="Filter-2" transform="translate(1249.000000, 322.000000)">
                <path d="M0.892857143,4.45389134 L2.50595238,4.45389134 C2.90230147,5.95964599 4.18770628,7 5.65178571,7 C7.11586515,7 8.40126996,5.95964599 8.79761905,4.45389134 L24.1071429,4.45389134 C24.6002542,4.45389134 25,4.02681964 25,3.5 C25,2.97318036 24.6002542,2.54610866 24.1071429,2.54610866 L8.80357143,2.54610866 C8.40722234,1.04035401 7.12181753,0 5.6577381,0 C4.19365866,0 2.90825385,1.04035401 2.51190476,2.54610866 L0.892857143,2.54610866 C0.399745759,2.54610866 0,2.97318036 0,3.5 C0,4.02681964 0.399745759,4.45389134 0.892857143,4.45389134 Z M5.6547619,1.91018111 C6.47661421,1.91018111 7.14285714,2.62196727 7.14285714,3.5 C7.14285714,4.37803273 6.47661421,5.08981889 5.6547619,5.08981889 C4.8329096,5.08981889 4.16666667,4.37803273 4.16666667,3.5 C4.16666667,2.62196727 4.8329096,1.91018111 5.6547619,1.91018111 Z" id="Shape"></path>
                <path d="M24.1071429,11.2346471 L15.547619,11.2346471 C15.0605169,9.88783157 13.8496893,9 12.5,9 C11.1503107,9 9.93948308,9.88783157 9.45238095,11.2346471 L0.892857143,11.2346471 C0.399745759,11.2346471 0,11.6623681 0,12.1899887 C0,12.7176093 0.399745759,13.1453302 0.892857143,13.1453302 L9.28571429,13.1453302 C9.5770795,14.8008541 10.9285375,16 12.5029762,16 C14.0774149,16 15.4288729,14.8008541 15.7202381,13.1453302 L24.1071429,13.1453302 C24.6002542,13.1453302 25,12.7176093 25,12.1899887 C25,11.6623681 24.6002542,11.2346471 24.1071429,11.2346471 Z M12.5,14.1006718 C11.6781477,14.1006718 11.0119048,13.3878035 11.0119048,12.5084359 C11.0119048,11.6290682 11.6781477,10.9161999 12.5,10.9161999 C13.3218523,10.9161999 13.9880952,11.6290682 13.9880952,12.5084359 C13.9880952,13.3878035 13.3218523,14.1006718 12.5,14.1006718 Z" id="Shape"></path>
                <path d="M24.1071429,19.5461087 L22.4940476,19.5461087 C22.0976985,18.040354 20.8122937,17 19.3482143,17 C17.8841348,17 16.59873,18.040354 16.202381,19.5461087 L0.892857143,19.5461087 C0.399745759,19.5461087 0,19.9731804 0,20.5 C0,21.0268196 0.399745759,21.4538913 0.892857143,21.4538913 L16.1964286,21.4538913 C16.5927777,22.959646 17.8781825,24 19.3422619,24 C20.8063413,24 22.0917461,22.959646 22.4880952,21.4538913 L24.1071429,21.4538913 C24.6002542,21.4538913 25,21.0268196 25,20.5 C25,19.9731804 24.6002542,19.5461087 24.1071429,19.5461087 Z M19.3452381,22.0898189 C18.5233858,22.0898189 17.8571429,21.3780327 17.8571429,20.5 C17.8571429,19.6219673 18.5233858,18.9101811 19.3452381,18.9101811 C20.1670904,18.9101811 20.8333333,19.6219673 20.8333333,20.5 C20.8333333,21.3780327 20.1670904,22.0898189 19.3452381,22.0898189 Z" id="Shape"></path>
            </g>
        </g>
    </g>
</svg>