<?xml version="1.0" encoding="UTF-8"?>
<svg width="29px" height="26px" viewBox="0 0 29 26" version="1.1" xmlns="http://www.w3.org/2000/svg" xmlns:xlink="http://www.w3.org/1999/xlink">
    <title>396DF6ED-EABC-4690-AC9D-C7416CF26703</title>
    <g id="Page-1" stroke="none" stroke-width="1" fill="none" fill-rule="evenodd">
        <g id="Default---Inspire-Me-(5-products)" transform="translate(-1247.000000, -390.000000)" fill="#000000">
            <g id="Слой_249" transform="translate(1247.000000, 390.000000)">
                <path d="M21.8723357,0 C18.7881883,0 16.3221581,2.31038392 14.7897425,3.84006119 C13.2251332,2.32307834 10.714032,0 7.63632327,0 C3.12921847,0 0,3.12917383 0,7.6166503 C0,17.3596155 12.9482682,25.3888343 13.5213144,25.712542 C14.1461254,26.0958193 14.937578,26.0958193 15.562389,25.712542 C16.1096803,25.3761399 29,17.3088378 29,7.62299751 C28.954929,2.91971595 26.2442274,0 21.8723357,0 Z M14.4678064,24.1193926 C14.4678064,24.1193926 1.88654529,16.4392702 1.88654529,7.6166503 C1.88654529,4.20819929 4.13365897,1.90416258 7.59125222,1.90416258 C11.0488455,1.90416258 14.1201155,6.34720858 14.7639876,6.34720858 C15.4078597,6.34720858 18.3889876,1.90416258 21.8465808,1.90416258 C25.3041741,1.90416258 26.9975577,4.20819929 26.9975577,7.6166503 C27.0233126,16.3567565 14.4678064,24.1193926 14.4678064,24.1193926 Z" id="Shape"></path>
            </g>
        </g>
    </g>
</svg>