<?xml version="1.0" encoding="utf-8"?>
<!-- Generator: Adobe Illustrator 25.2.3, SVG Export Plug-In . SVG Version: 6.00 Build 0)  -->
<svg version="1.1" id="Layer_1" xmlns="http://www.w3.org/2000/svg" xmlns:xlink="http://www.w3.org/1999/xlink" x="0px" y="0px"
	 viewBox="0 0 17 20" style="enable-background:new 0 0 17 20;" xml:space="preserve">
<style type="text/css">
	.st0{fill-rule:evenodd;clip-rule:evenodd;}
</style>
<g id="Page-1">
	<g id="Fly-out---Add-items-_x28_default_x29_" transform="translate(-1059.000000, -109.000000)">
		<g id="filter-list-item" transform="translate(1059.000000, 108.000000)">
			<g id="Image" transform="translate(0.000000, 1.000000)">
				<path id="Shape" class="st0" d="M16.6,4.5l-3.8-3.9C12.5,0.3,12.1,0,11.6,0H1.3C0.6,0,0,0.6,0,1.4v17.3C0,19.4,0.6,20,1.3,20
					h14.3c0.4,0.1,0.7-0.1,1-0.3c0.3-0.3,0.4-0.6,0.3-1V5.9C17,5.4,16.9,4.9,16.6,4.5L16.6,4.5z M13,2.8l1.7,1.8H13V2.8z M11.6,1.4
					L11.6,1.4L11.6,1.4l0,4.5h4v4.9l-2.4-1.4c-0.3-0.2-0.6-0.1-0.8,0.1l-3.7,4.2l-3.1-1.2c-0.2-0.1-0.5,0-0.7,0.2l-3.5,3.6V1.4H11.6
					z M1.3,18.6v-0.4h0L5.5,14l3.2,1.2c0.3,0.1,0.5,0,0.7-0.2l3.7-4.1l2.5,1.5v6.3H1.3z"/>
				<path id="Shape_1_" class="st0" d="M6,9c1.1,0,2-0.9,2-2S7.1,5,6,5S4,5.9,4,7S4.9,9,6,9L6,9z M6,6.2c0.4,0,0.8,0.4,0.8,0.8
					S6.4,7.8,6,7.8S5.2,7.4,5.2,7S5.6,6.2,6,6.2z"/>
			</g>
		</g>
	</g>
</g>
</svg>
