<?xml version="1.0" encoding="utf-8"?>
<!-- Generator: Adobe Illustrator 25.2.3, SVG Export Plug-In . SVG Version: 6.00 Build 0)  -->
<svg version="1.1" id="Layer_1" xmlns="http://www.w3.org/2000/svg" xmlns:xlink="http://www.w3.org/1999/xlink" x="0px" y="0px"
	 viewBox="0 0 19 21" style="enable-background:new 0 0 19 21;" xml:space="preserve">
<style type="text/css">
	.st0{fill-rule:evenodd;clip-rule:evenodd;}
</style>
<g id="Page-1">
	<g id="Fly-out---Add-items-_x28_default_x29_" transform="translate(-1059.000000, -184.000000)">
		<g id="Search" transform="translate(1059.000000, 184.000000)">
			<path id="Shape" class="st0" d="M18.8,19.7L14.3,15c3.2-3.3,3.3-8.7,0.2-12.1S6.4-1,3,2.1s-4,8.4-1.2,12.1s7.8,4.5,11.4,1.8
				l4.6,4.8c0.3,0.3,0.7,0.3,1,0C19.1,20.5,19.1,20,18.8,19.7L18.8,19.7z M1.6,8.8c0-4,3.1-7.2,6.8-7.2s6.8,3.2,6.8,7.2
				S12.2,16,8.4,16S1.6,12.8,1.6,8.8z"/>
		</g>
	</g>
</g>
</svg>
