<?xml version="1.0" encoding="UTF-8"?>
<svg width="24px" height="24px" viewBox="0 0 24 24" version="1.1" xmlns="http://www.w3.org/2000/svg" xmlns:xlink="http://www.w3.org/1999/xlink">
    <title>8A9F8BF3-D0F3-4B16-BB32-23AA623224EC</title>
    <g id="Page-1" stroke="none" stroke-width="1" fill="none" fill-rule="evenodd">
        <g id="Default---Inspire-Me-(5-products)" transform="translate(-1249.000000, -453.000000)" fill="#000000">
            <g id="Share-2" transform="translate(1249.000000, 453.000000)">
                <path d="M19.5693997,15.3783939 C18.2354712,15.3791853 16.973272,15.9667631 16.1348027,16.977264 L8.69738505,13.3552082 C8.89439406,12.6175662 8.88129768,11.841577 8.65950347,11.1106405 L16.2358203,7.11961472 C17.7109502,8.78258579 20.2353421,9.09622215 22.0918338,7.84717954 C23.9483254,6.59813693 24.5407293,4.18752867 23.4660756,2.25511826 C22.391422,0.322707847 19.9948214,-0.510936967 17.906509,0.321252453 C15.8181967,1.15344187 14.7088061,3.38421902 15.3329759,5.49614659 L7.75665905,9.4871724 C6.53865348,8.12083271 4.57338583,7.64228542 2.83853377,8.28959735 C1.10368171,8.93690928 -0.0303405046,10.5718706 0.000618368977,12.3811239 C0.0315772426,14.1903771 1.22090707,15.7876224 2.97694228,16.378265 C4.73297749,16.9689077 6.68078093,16.4268376 7.85136301,15.0217228 L15.2887807,18.6437786 C14.8276403,20.4267244 15.5800591,22.2981185 17.1616399,23.3018994 C18.7432207,24.3056802 20.8047615,24.22022 22.2930581,23.0891787 C23.7813547,21.9581375 24.3678017,20.0312413 23.7527938,18.2929068 C23.1377859,16.5545722 21.4571126,15.3886115 19.5693997,15.3906929 L19.5693997,15.3783939 Z M19.5693997,1.8494928 C20.9641611,1.8494928 22.0948386,2.95078286 22.0948386,4.30929299 C22.0948386,5.66780313 20.9641611,6.76909319 19.5693997,6.76909319 C18.1746383,6.76909319 17.0439607,5.66780313 17.0439607,4.30929299 C17.0439607,2.95078286 18.1746383,1.8494928 19.5693997,1.8494928 Z M4.41676605,14.7634438 C3.02200464,14.7634438 1.89132711,13.6621538 1.89132711,12.3036436 C1.89132711,10.9451335 3.02200464,9.84384343 4.41676605,9.84384343 C5.81152746,9.84384343 6.94220499,10.9451335 6.94220499,12.3036436 C6.94220499,13.6621538 5.81152746,14.7634438 4.41676605,14.7634438 Z M19.5693997,22.1428444 C18.1746383,22.1428444 17.0439607,21.0415543 17.0439607,19.6830442 C17.0439607,18.3245341 18.1746383,17.223244 19.5693997,17.223244 C20.9641611,17.223244 22.0948386,18.3245341 22.0948386,19.6830442 C22.0948386,21.0415543 20.9641611,22.1428444 19.5693997,22.1428444 Z" id="Shape"></path>
            </g>
        </g>
    </g>
</svg>