<?xml version="1.0" encoding="UTF-8"?>
<svg width="17px" height="20px" viewBox="0 0 17 20" version="1.1" xmlns="http://www.w3.org/2000/svg" xmlns:xlink="http://www.w3.org/1999/xlink">
    <title>CCD1E15C-9D10-4249-BF61-4F70C6FD7555</title>
    <g id="Page-1" stroke="none" stroke-width="1" fill="none" fill-rule="evenodd">
        <g id="Fly-out---Add-items-(default)" transform="translate(-1059.000000, -109.000000)" fill="#000000">
            <g id="filter-list-item" transform="translate(1059.000000, 108.000000)">
                <g id="Image" transform="translate(0.000000, 1.000000)">
                    <path d="M16.5677137,4.51541379 L12.7409563,0.645059113 C12.5006782,0.250829112 12.079611,0.00780255173 11.6233286,0 L1.3411533,0 C0.600454785,0 0,0.610146765 0,1.36280094 L0,18.6249462 C0,19.3776004 0.600454785,19.9877472 1.3411533,19.9877472 L15.6467885,19.9877472 C16.0162281,20.0416944 16.3890849,19.9155776 16.6530018,19.6474008 C16.9169186,19.3792241 17.0410321,19.000349 16.9879418,18.6249462 L16.9879418,5.90547075 C17.0224031,5.40519197 16.8726282,4.90975714 16.5677137,4.51541379 L16.5677137,4.51541379 Z M12.9644819,2.78011392 L14.6990402,4.54266981 L12.9644819,4.54266981 L12.9644819,2.78011392 Z M11.5786235,1.36280094 L11.5786235,1.39005696 L11.6054465,1.41731298 L11.6054465,5.90547075 L15.6289064,5.90547075 L15.6289064,10.7661274 L13.2774177,9.4033265 C13.0032406,9.24414807 12.6569252,9.300907 12.4459026,9.53960659 L8.72196695,13.7188628 L5.59260926,12.5377687 C5.34680671,12.4460953 5.07097602,12.5081833 4.88626852,12.6967621 L1.33668279,16.3036419 L1.33668279,1.36280094 L11.5786235,1.36280094 Z M1.3411533,18.6249462 L1.3411533,18.2161059 L1.36797636,18.2161059 L5.53449261,13.9823377 L8.70408491,15.1725172 C8.96072092,15.268621 9.24907779,15.1967164 9.4327782,14.9908104 L13.0985972,10.8751515 L15.6467885,12.3560619 L15.6467885,18.6249462 L1.3411533,18.6249462 Z" id="Shape"></path>
                    <path d="M6,9 C7.1045695,9 8,8.1045695 8,7 C8,5.8954305 7.1045695,5 6,5 C4.8954305,5 4,5.8954305 4,7 C4,8.1045695 4.8954305,9 6,9 L6,9 Z M6,6.2 C6.4418278,6.2 6.8,6.5581722 6.8,7 C6.8,7.4418278 6.4418278,7.8 6,7.8 C5.5581722,7.8 5.2,7.4418278 5.2,7 C5.2,6.5581722 5.5581722,6.2 6,6.2 Z" id="Shape"></path>
                </g>
            </g>
        </g>
    </g>
</svg>